<?xml version="1.0" encoding="UTF-8"?>
<svg xmlns="http://www.w3.org/2000/svg" viewBox="0 0 64 64" role="img" aria-label="Alpha Tech Simulations icon">
  <!-- Radar arc (shared DNA) -->
  <path d="M 10,54 A 26,26 0 0 1 44,14" stroke="#FFFFFF" stroke-width="2.4" fill="none" opacity="0.55" stroke-linecap="round"/>
  <!-- Radar origin -->
  <circle cx="10" cy="54" r="2.8" fill="#FE5000"/>
  <!-- Signal ray -->
  <path d="M 10,54 L 40,26" stroke="#FE5000" stroke-width="2.4" fill="none" stroke-linecap="round"/>
  <!-- Aircraft silhouette -->
  <g transform="translate(50,28)">
    <path d="M 8,0 L 4,-0.8 L 1,-1.2 L -2,-5 L -3.5,-5 L -3.5,-1.2 L -6,-1.5 L -7,-3 L -8,-3 L -8,-0.4 L -8.5,0 L -8,0.4 L -8,3 L -7,3 L -6,1.5 L -3.5,1.2 L -3.5,5 L -2,5 L 1,1.2 L 4,0.8 Z" fill="#FE5000"/>
    <ellipse cx="2" cy="0" rx="1.6" ry="0.5" fill="#FFFFFF" opacity="0.55"/>
  </g>
</svg>
