<?xml version="1.0" encoding="UTF-8"?>
<svg xmlns="http://www.w3.org/2000/svg" viewBox="0 0 380 78" role="img" aria-label="Alpha Tech Solutions">
  <!-- Radar scope (Solutions = registered mark) -->
  <path d="M 38,20 A 36,36 0 1 1 9,70" stroke="#FFFFFF" stroke-width="1.4" fill="none" opacity="0.55" stroke-linecap="round"/>
  <path d="M 38,32 A 24,24 0 1 1 17,70" stroke="#FFFFFF" stroke-width="1.1" fill="none" opacity="0.4" stroke-linecap="round"/>
  <path d="M 38,44 A 12,12 0 1 1 27,65" stroke="#FFFFFF" stroke-width="0.9" fill="none" opacity="0.28" stroke-linecap="round"/>
  <circle cx="38" cy="56" r="2.2" fill="#FFFFFF" opacity="0.7"/>
  <line x1="38" y1="48" x2="38" y2="64" stroke="#FFFFFF" stroke-width="0.6" opacity="0.25"/>
  <line x1="30" y1="56" x2="46" y2="56" stroke="#FFFFFF" stroke-width="0.6" opacity="0.25"/>
  <line x1="38" y1="56" x2="65" y2="22" stroke="#FFFFFF" stroke-width="1.3" opacity="0.7" stroke-linecap="round"/>
  <circle cx="62" cy="24" r="3.2" fill="#FFFFFF"/>
  <path d="M 65,22 Q 200,6 336,22" stroke="#FFFFFF" stroke-width="2.4" fill="none" opacity="0.95" stroke-linecap="round"/>
  <polygon points="358,30 352,39.5 341,39.5 335,30 341,20.5 352,20.5" fill="#FFFFFF"/>
  <circle cx="346.5" cy="30" r="1.8" fill="#0A0F1A" opacity="0.5"/>
  <text x="88" y="44" font-family="Orbitron,sans-serif" font-size="22" font-weight="800" fill="#FFFFFF" letter-spacing="1.8">ALPHA TECH</text>
  <text x="89" y="64" font-family="Rajdhani,sans-serif" font-size="12" font-weight="600" fill="#FFFFFF" letter-spacing="4.5">SOLUTIONS</text>
</svg>
