<?xml version="1.0" encoding="UTF-8"?>
<svg version="1.1" viewBox="0 0 1536 1024" width="1536" height="1024" xmlns="http://www.w3.org/2000/svg">
<path transform="translate(431,376)" d="m0 0h3l3 11 2 2-1 4-23 13-29 15-19 10-1 97 5 2 19 10 46 25 3 1-2 5-4 12-4-1-27-14-46-25-7-6-1-3v-110l4-6 28-15 33-17z" fill="#FEFEFE"/>
<path transform="translate(480,375)" d="m0 0 6 2 18 10 28 15 18 10 10 6 4 5v113l-4 5-50 27-28 15h-2l-3-11-3-4v-2l68-36 4-1-1-99-16-8-22-12-21-11-12-7 1-4 4-10z" fill="#FEFEFE"/>
<path transform="translate(768,451)" d="m0 0h17l12 5 5 4 7 11 2 8v9l-3 11-6 8-7 6-11 4h-14l-10-4-2-2-1 27h-17v-86h17v5l9-5zm1 15-6 3-5 6-1 3v11l4 8 6 4 4 1h7l8-3 6-8 1-10-3-8-6-5-4-2z" fill="#FEFEFE"/>
<path transform="translate(657,429)" d="m0 0h6l6 10 38 76v1h-20l-7-14-40-1-2 6-5 9h-20l2-6 15-29 17-34zm3 31-11 23-1 4h25l-2-6-10-21z" fill="#FEFEFE"/>
<path transform="translate(913,451)" d="m0 0h17l10 5 1 1 1-5h17v64h-17l-1-6-5 4-7 3h-15l-10-4-8-7-5-7-3-12 1-13 6-12 8-7zm5 15-6 4-4 5-2 10 3 9 4 5 6 3h10l8-4 4-6 1-3v-10l-4-8-8-5z" fill="#FEFEFE"/>
<path transform="translate(820,425)" d="m0 0h16l1 32 8-5 3-1h15l9 4 6 7 3 9v45h-17l-1-37-2-8-1-3-4-1h-10l-6 4-3 9-1 36h-17v-90z" fill="#FEFEFE"/>
<path transform="translate(1187,425)" d="m0 0h16l1 1 1 31 5-4 5-2h15l7 3 7 6 3 7 1 5v44h-17l-1-40-3-7-4-2h-10l-5 3-3 6-1 40h-17z" fill="#FEFEFE"/>
<path transform="translate(1076,451)" d="m0 0h18l9 4 5 3 5 7 3 9v14l-1 1h-45l4 8 4 3 8 2h7l10-3 5-1 6 9-2 4-11 5-4 1h-18l-11-4-8-6-5-6-3-9v-16l4-10 7-8 7-5zm4 14-6 4-4 5v3h30l-2-7-7-5z" fill="#FEFEFE"/>
<path transform="translate(504,471)" d="m0 0h1v18l-4 4-40 14-50 17-24 8v-19l2-3 80-27z" fill="#FEFEFE"/>
<path transform="translate(994,429)" d="m0 0h67l1 15-1 1h-24v71h-17v-71h-26l-1-1v-14z" fill="#FEFEFE"/>
<path transform="translate(515,435)" d="m0 0h2v18l-4 3-58 20-41 14-9 3h-3v-17l4-4 41-14 36-12z" fill="#FEFEFE"/>
<path transform="translate(1146,451)" d="m0 0h18l11 4 5 4-2 5-6 8-8-4-3-1h-10l-7 4-4 7v11l3 6 4 4 6 2h10l9-4 7 10-2 4-10 5-4 1h-15l-11-4-8-6-6-10-2-8v-9l2-9 6-10 9-7z" fill="#FEFEFE"/>
<path transform="translate(488,416)" d="m0 0 2 1v15l-4 4-40 12-29 9-13 5h-2v-17l4-5 79-23z" fill="#FEFEFE"/>
<path transform="translate(504,503)" d="m0 0h1v18l-4 4-11 4-36 12-26 9h-4v-18l3-3 45-15z" fill="#FEFEFE"/>
<path transform="translate(709,426)" d="m0 0h18v89l-1 1h-17z" fill="#FEFEFE"/>
<path transform="translate(452,356)" d="m0 0h9l8 4 5 7 1 10-3 8-7 6-3 1h-10l-6-3-6-7-1-3v-10l4-8 7-4zm4 10-6 3-1 7 3 5 7 1 5-4v-7l-4-4z" fill="#FEFEFE"/>
<path transform="translate(451,565)" d="m0 0h11l6 3 5 6 2 5v8l-4 8-6 4-3 1h-10l-6-3-6-7-1-3v-10l4-7zm2 10-4 5 1 7 4 3h6l4-4v-7l-4-4z" fill="#FEFEFE"/>
</svg>
